<svg width="901" height="953" viewBox="0 0 901 953" fill="none" xmlns="http://www.w3.org/2000/svg">
<path opacity="0.2" d="M48.75 75.8438H33.9062L26.875 116H0.15625L19.8438 2.25L60 2.32812C72.8646 2.32812 82.7604 5.34896 89.6875 11.3906C96.6667 17.3802 99.7917 25.5833 99.0625 36C98.4896 44.2292 96.1198 51.0521 91.9531 56.4688C87.7865 61.8333 81.9531 66.0781 74.4531 69.2031L89.7656 114.672V116H61.25L48.75 75.8438ZM37.5 54.6719L53.125 54.8281C57.3958 54.8281 61.0938 53.7865 64.2188 51.7031C67.3958 49.6198 69.6615 46.7812 71.0156 43.1875C72.3698 39.5417 72.7604 36.026 72.1875 32.6406C71.1458 26.8594 67.4479 23.8125 61.0938 23.5L42.9688 23.4219L37.5 54.6719ZM163.541 117.562C151.718 117.302 142.239 113.396 135.103 105.844C127.968 98.2917 123.931 88.1875 122.994 75.5312C122.473 69.2812 122.968 61.9375 124.478 53.5C125.989 45.0104 128.671 37.1979 132.525 30.0625C136.379 22.9271 141.197 16.9896 146.978 12.25C156.666 4.28125 167.811 0.427083 180.416 0.6875C188.176 0.84375 194.947 2.64062 200.728 6.07812C206.561 9.46354 211.223 14.3594 214.713 20.7656C218.202 27.1719 220.233 34.4635 220.806 42.6406C221.223 48.4219 220.858 55.0104 219.713 62.4062C218.619 69.75 216.561 76.7812 213.541 83.5C210.572 90.1667 206.718 96.0521 201.978 101.156C197.239 106.26 191.64 110.323 185.181 113.344C178.775 116.312 171.561 117.719 163.541 117.562ZM194.009 42.4062C193.489 29.3854 188.436 22.6146 178.853 22.0938C171.457 21.7292 165.338 24.6719 160.494 30.9219C155.65 37.1198 152.447 46.2865 150.884 58.4219C149.895 65.9219 149.53 71.7292 149.791 75.8438C150.311 89.0729 155.416 95.8698 165.103 96.2344C171.457 96.5469 176.926 94.2812 181.509 89.4375C186.093 84.5417 189.4 77.4583 191.431 68.1875C193.463 58.8646 194.322 50.2708 194.009 42.4062ZM238.956 116L258.644 2.25L294.816 2.32812C309.086 2.38021 319.738 5.08854 326.769 10.4531C333.8 15.8177 337.003 23.3438 336.378 33.0312C335.597 45.0104 329.034 53.5 316.691 58.5C321.118 60.0625 324.555 62.901 327.003 67.0156C329.503 71.0781 330.571 75.974 330.206 81.7031C329.477 92.6927 325.128 101.156 317.159 107.094C309.243 113.031 298.383 116 284.581 116H238.956ZM274.113 67.6406L269.347 94.9062L285.363 94.9844C290.363 94.9844 294.529 93.7604 297.863 91.3125C301.196 88.8125 303.175 85.5052 303.8 81.3906C305.258 72.6927 301.925 68.1354 293.8 67.7188L274.113 67.6406ZM277.159 49.6719L289.738 49.75C301.352 49.4896 307.863 45.0365 309.269 36.3906C310.519 27.849 306.092 23.5521 295.988 23.5L281.769 23.4219L277.159 49.6719ZM401.247 117.562C389.424 117.302 379.945 113.396 372.809 105.844C365.674 98.2917 361.638 88.1875 360.7 75.5312C360.179 69.2812 360.674 61.9375 362.184 53.5C363.695 45.0104 366.377 37.1979 370.231 30.0625C374.085 22.9271 378.903 16.9896 384.684 12.25C394.372 4.28125 405.518 0.427083 418.122 0.6875C425.882 0.84375 432.653 2.64062 438.434 6.07812C444.268 9.46354 448.929 14.3594 452.419 20.7656C455.908 27.1719 457.94 34.4635 458.513 42.6406C458.929 48.4219 458.565 55.0104 457.419 62.4062C456.325 69.75 454.268 76.7812 451.247 83.5C448.278 90.1667 444.424 96.0521 439.684 101.156C434.945 106.26 429.346 110.323 422.888 113.344C416.481 116.312 409.268 117.719 401.247 117.562ZM431.716 42.4062C431.195 29.3854 426.143 22.6146 416.559 22.0938C409.164 21.7292 403.044 24.6719 398.2 30.9219C393.356 37.1198 390.153 46.2865 388.591 58.4219C387.601 65.9219 387.236 71.7292 387.497 75.8438C388.018 89.0729 393.122 95.8698 402.809 96.2344C409.164 96.5469 414.632 94.2812 419.216 89.4375C423.799 84.5417 427.106 77.4583 429.138 68.1875C431.169 58.8646 432.028 50.2708 431.716 42.4062ZM553.616 67.7969H511.819L507.053 94.9062H556.506L552.834 116H476.663L496.35 2.25H572.678L569.006 23.4219H519.475L515.256 47.4062H557.131L553.616 67.7969ZM645.516 94.75H609.188L599.109 116H569.656L629.891 2.25H655.047L676.062 116H648.25L645.516 94.75ZM619.188 73.5781H642.781L637.781 34.3594L619.188 73.5781ZM793.119 23.4219H759.994L743.978 116H717.181L733.275 23.4219H700.697L704.447 2.25H796.791L793.119 23.4219ZM864.55 85.2188C865.696 79.3333 862.519 74.776 855.019 71.5469L842.206 66.2344C824.237 58.1615 815.696 47.1719 816.581 33.2656C816.946 26.9115 819.133 21.2604 823.144 16.3125C827.154 11.3125 832.701 7.43229 839.784 4.67188C846.868 1.91146 854.602 0.583333 862.987 0.6875C874.237 0.895833 883.274 4.17708 890.097 10.5312C896.972 16.8854 900.357 25.401 900.253 36.0781H873.691C873.847 31.7031 872.909 28.2135 870.878 25.6094C868.899 22.9531 865.618 21.5729 861.034 21.4688C856.555 21.3646 852.597 22.4062 849.159 24.5938C845.722 26.7812 843.691 29.724 843.066 33.4219C842.076 38.6302 845.93 42.901 854.628 46.2344C863.378 49.5677 869.732 52.4323 873.691 54.8281C886.139 62.276 891.972 72.3281 891.191 84.9844C890.774 91.5469 888.665 97.3021 884.862 102.25C881.06 107.198 875.774 111.026 869.003 113.734C862.284 116.443 854.732 117.745 846.347 117.641C840.201 117.536 834.498 116.573 829.237 114.75C823.977 112.927 819.472 110.271 815.722 106.781C808.118 99.75 804.472 90.5052 804.784 79.0469L831.581 79.125C831.269 84.9583 832.389 89.3854 834.941 92.4062C837.493 95.375 841.79 96.8594 847.831 96.8594C852.31 96.8594 856.034 95.8438 859.003 93.8125C862.024 91.7292 863.873 88.8646 864.55 85.2188ZM48.75 242.844H33.9062L26.875 283H0.15625L19.8438 169.25L60 169.328C72.8646 169.328 82.7604 172.349 89.6875 178.391C96.6667 184.38 99.7917 192.583 99.0625 203C98.4896 211.229 96.1198 218.052 91.9531 223.469C87.7865 228.833 81.9531 233.078 74.4531 236.203L89.7656 281.672V283H61.25L48.75 242.844ZM37.5 221.672L53.125 221.828C57.3958 221.828 61.0938 220.786 64.2188 218.703C67.3958 216.62 69.6615 213.781 71.0156 210.188C72.3698 206.542 72.7604 203.026 72.1875 199.641C71.1458 193.859 67.4479 190.812 61.0938 190.5L42.9688 190.422L37.5 221.672ZM163.541 284.562C151.718 284.302 142.239 280.396 135.103 272.844C127.968 265.292 123.931 255.188 122.994 242.531C122.473 236.281 122.968 228.938 124.478 220.5C125.989 212.01 128.671 204.198 132.525 197.062C136.379 189.927 141.197 183.99 146.978 179.25C156.666 171.281 167.811 167.427 180.416 167.688C188.176 167.844 194.947 169.641 200.728 173.078C206.561 176.464 211.223 181.359 214.713 187.766C218.202 194.172 220.233 201.464 220.806 209.641C221.223 215.422 220.858 222.01 219.713 229.406C218.619 236.75 216.561 243.781 213.541 250.5C210.572 257.167 206.718 263.052 201.978 268.156C197.239 273.26 191.64 277.323 185.181 280.344C178.775 283.312 171.561 284.719 163.541 284.562ZM194.009 209.406C193.489 196.385 188.436 189.615 178.853 189.094C171.457 188.729 165.338 191.672 160.494 197.922C155.65 204.12 152.447 213.286 150.884 225.422C149.895 232.922 149.53 238.729 149.791 242.844C150.311 256.073 155.416 262.87 165.103 263.234C171.457 263.547 176.926 261.281 181.509 256.438C186.093 251.542 189.4 244.458 191.431 235.188C193.463 225.865 194.322 217.271 194.009 209.406ZM238.956 283L258.644 169.25L294.816 169.328C309.086 169.38 319.738 172.089 326.769 177.453C333.8 182.818 337.003 190.344 336.378 200.031C335.597 212.01 329.034 220.5 316.691 225.5C321.118 227.062 324.555 229.901 327.003 234.016C329.503 238.078 330.571 242.974 330.206 248.703C329.477 259.693 325.128 268.156 317.159 274.094C309.243 280.031 298.383 283 284.581 283H238.956ZM274.113 234.641L269.347 261.906L285.363 261.984C290.363 261.984 294.529 260.76 297.863 258.312C301.196 255.812 303.175 252.505 303.8 248.391C305.258 239.693 301.925 235.135 293.8 234.719L274.113 234.641ZM277.159 216.672L289.738 216.75C301.352 216.49 307.863 212.036 309.269 203.391C310.519 194.849 306.092 190.552 295.988 190.5L281.769 190.422L277.159 216.672ZM401.247 284.562C389.424 284.302 379.945 280.396 372.809 272.844C365.674 265.292 361.638 255.188 360.7 242.531C360.179 236.281 360.674 228.938 362.184 220.5C363.695 212.01 366.377 204.198 370.231 197.062C374.085 189.927 378.903 183.99 384.684 179.25C394.372 171.281 405.518 167.427 418.122 167.688C425.882 167.844 432.653 169.641 438.434 173.078C444.268 176.464 448.929 181.359 452.419 187.766C455.908 194.172 457.94 201.464 458.513 209.641C458.929 215.422 458.565 222.01 457.419 229.406C456.325 236.75 454.268 243.781 451.247 250.5C448.278 257.167 444.424 263.052 439.684 268.156C434.945 273.26 429.346 277.323 422.888 280.344C416.481 283.312 409.268 284.719 401.247 284.562ZM431.716 209.406C431.195 196.385 426.143 189.615 416.559 189.094C409.164 188.729 403.044 191.672 398.2 197.922C393.356 204.12 390.153 213.286 388.591 225.422C387.601 232.922 387.236 238.729 387.497 242.844C388.018 256.073 393.122 262.87 402.809 263.234C409.164 263.547 414.632 261.281 419.216 256.438C423.799 251.542 427.106 244.458 429.138 235.188C431.169 225.865 432.028 217.271 431.716 209.406ZM553.616 234.797H511.819L507.053 261.906H556.506L552.834 283H476.663L496.35 169.25H572.678L569.006 190.422H519.475L515.256 214.406H557.131L553.616 234.797ZM645.516 261.75H609.188L599.109 283H569.656L629.891 169.25H655.047L676.062 283H648.25L645.516 261.75ZM619.188 240.578H642.781L637.781 201.359L619.188 240.578ZM793.119 190.422H759.994L743.978 283H717.181L733.275 190.422H700.697L704.447 169.25H796.791L793.119 190.422ZM864.55 252.219C865.696 246.333 862.519 241.776 855.019 238.547L842.206 233.234C824.237 225.161 815.696 214.172 816.581 200.266C816.946 193.911 819.133 188.26 823.144 183.312C827.154 178.312 832.701 174.432 839.784 171.672C846.868 168.911 854.602 167.583 862.987 167.688C874.237 167.896 883.274 171.177 890.097 177.531C896.972 183.885 900.357 192.401 900.253 203.078H873.691C873.847 198.703 872.909 195.214 870.878 192.609C868.899 189.953 865.618 188.573 861.034 188.469C856.555 188.365 852.597 189.406 849.159 191.594C845.722 193.781 843.691 196.724 843.066 200.422C842.076 205.63 845.93 209.901 854.628 213.234C863.378 216.568 869.732 219.432 873.691 221.828C886.139 229.276 891.972 239.328 891.191 251.984C890.774 258.547 888.665 264.302 884.862 269.25C881.06 274.198 875.774 278.026 869.003 280.734C862.284 283.443 854.732 284.745 846.347 284.641C840.201 284.536 834.498 283.573 829.237 281.75C823.977 279.927 819.472 277.271 815.722 273.781C808.118 266.75 804.472 257.505 804.784 246.047L831.581 246.125C831.269 251.958 832.389 256.385 834.941 259.406C837.493 262.375 841.79 263.859 847.831 263.859C852.31 263.859 856.034 262.844 859.003 260.812C862.024 258.729 863.873 255.865 864.55 252.219ZM48.75 409.844H33.9062L26.875 450H0.15625L19.8438 336.25L60 336.328C72.8646 336.328 82.7604 339.349 89.6875 345.391C96.6667 351.38 99.7917 359.583 99.0625 370C98.4896 378.229 96.1198 385.052 91.9531 390.469C87.7865 395.833 81.9531 400.078 74.4531 403.203L89.7656 448.672V450H61.25L48.75 409.844ZM37.5 388.672L53.125 388.828C57.3958 388.828 61.0938 387.786 64.2188 385.703C67.3958 383.62 69.6615 380.781 71.0156 377.188C72.3698 373.542 72.7604 370.026 72.1875 366.641C71.1458 360.859 67.4479 357.812 61.0938 357.5L42.9688 357.422L37.5 388.672ZM163.541 451.562C151.718 451.302 142.239 447.396 135.103 439.844C127.968 432.292 123.931 422.188 122.994 409.531C122.473 403.281 122.968 395.938 124.478 387.5C125.989 379.01 128.671 371.198 132.525 364.062C136.379 356.927 141.197 350.99 146.978 346.25C156.666 338.281 167.811 334.427 180.416 334.688C188.176 334.844 194.947 336.641 200.728 340.078C206.561 343.464 211.223 348.359 214.713 354.766C218.202 361.172 220.233 368.464 220.806 376.641C221.223 382.422 220.858 389.01 219.713 396.406C218.619 403.75 216.561 410.781 213.541 417.5C210.572 424.167 206.718 430.052 201.978 435.156C197.239 440.26 191.64 444.323 185.181 447.344C178.775 450.312 171.561 451.719 163.541 451.562ZM194.009 376.406C193.489 363.385 188.436 356.615 178.853 356.094C171.457 355.729 165.338 358.672 160.494 364.922C155.65 371.12 152.447 380.286 150.884 392.422C149.895 399.922 149.53 405.729 149.791 409.844C150.311 423.073 155.416 429.87 165.103 430.234C171.457 430.547 176.926 428.281 181.509 423.438C186.093 418.542 189.4 411.458 191.431 402.188C193.463 392.865 194.322 384.271 194.009 376.406ZM238.956 450L258.644 336.25L294.816 336.328C309.086 336.38 319.738 339.089 326.769 344.453C333.8 349.818 337.003 357.344 336.378 367.031C335.597 379.01 329.034 387.5 316.691 392.5C321.118 394.062 324.555 396.901 327.003 401.016C329.503 405.078 330.571 409.974 330.206 415.703C329.477 426.693 325.128 435.156 317.159 441.094C309.243 447.031 298.383 450 284.581 450H238.956ZM274.113 401.641L269.347 428.906L285.363 428.984C290.363 428.984 294.529 427.76 297.863 425.312C301.196 422.812 303.175 419.505 303.8 415.391C305.258 406.693 301.925 402.135 293.8 401.719L274.113 401.641ZM277.159 383.672L289.738 383.75C301.352 383.49 307.863 379.036 309.269 370.391C310.519 361.849 306.092 357.552 295.988 357.5L281.769 357.422L277.159 383.672ZM401.247 451.562C389.424 451.302 379.945 447.396 372.809 439.844C365.674 432.292 361.638 422.188 360.7 409.531C360.179 403.281 360.674 395.938 362.184 387.5C363.695 379.01 366.377 371.198 370.231 364.062C374.085 356.927 378.903 350.99 384.684 346.25C394.372 338.281 405.518 334.427 418.122 334.688C425.882 334.844 432.653 336.641 438.434 340.078C444.268 343.464 448.929 348.359 452.419 354.766C455.908 361.172 457.94 368.464 458.513 376.641C458.929 382.422 458.565 389.01 457.419 396.406C456.325 403.75 454.268 410.781 451.247 417.5C448.278 424.167 444.424 430.052 439.684 435.156C434.945 440.26 429.346 444.323 422.888 447.344C416.481 450.312 409.268 451.719 401.247 451.562ZM431.716 376.406C431.195 363.385 426.143 356.615 416.559 356.094C409.164 355.729 403.044 358.672 398.2 364.922C393.356 371.12 390.153 380.286 388.591 392.422C387.601 399.922 387.236 405.729 387.497 409.844C388.018 423.073 393.122 429.87 402.809 430.234C409.164 430.547 414.632 428.281 419.216 423.438C423.799 418.542 427.106 411.458 429.138 402.188C431.169 392.865 432.028 384.271 431.716 376.406ZM553.616 401.797H511.819L507.053 428.906H556.506L552.834 450H476.663L496.35 336.25H572.678L569.006 357.422H519.475L515.256 381.406H557.131L553.616 401.797ZM645.516 428.75H609.188L599.109 450H569.656L629.891 336.25H655.047L676.062 450H648.25L645.516 428.75ZM619.188 407.578H642.781L637.781 368.359L619.188 407.578ZM793.119 357.422H759.994L743.978 450H717.181L733.275 357.422H700.697L704.447 336.25H796.791L793.119 357.422ZM864.55 419.219C865.696 413.333 862.519 408.776 855.019 405.547L842.206 400.234C824.237 392.161 815.696 381.172 816.581 367.266C816.946 360.911 819.133 355.26 823.144 350.312C827.154 345.312 832.701 341.432 839.784 338.672C846.868 335.911 854.602 334.583 862.987 334.688C874.237 334.896 883.274 338.177 890.097 344.531C896.972 350.885 900.357 359.401 900.253 370.078H873.691C873.847 365.703 872.909 362.214 870.878 359.609C868.899 356.953 865.618 355.573 861.034 355.469C856.555 355.365 852.597 356.406 849.159 358.594C845.722 360.781 843.691 363.724 843.066 367.422C842.076 372.63 845.93 376.901 854.628 380.234C863.378 383.568 869.732 386.432 873.691 388.828C886.139 396.276 891.972 406.328 891.191 418.984C890.774 425.547 888.665 431.302 884.862 436.25C881.06 441.198 875.774 445.026 869.003 447.734C862.284 450.443 854.732 451.745 846.347 451.641C840.201 451.536 834.498 450.573 829.237 448.75C823.977 446.927 819.472 444.271 815.722 440.781C808.118 433.75 804.472 424.505 804.784 413.047L831.581 413.125C831.269 418.958 832.389 423.385 834.941 426.406C837.493 429.375 841.79 430.859 847.831 430.859C852.31 430.859 856.034 429.844 859.003 427.812C862.024 425.729 863.873 422.865 864.55 419.219ZM48.75 576.844H33.9062L26.875 617H0.15625L19.8438 503.25L60 503.328C72.8646 503.328 82.7604 506.349 89.6875 512.391C96.6667 518.38 99.7917 526.583 99.0625 537C98.4896 545.229 96.1198 552.052 91.9531 557.469C87.7865 562.833 81.9531 567.078 74.4531 570.203L89.7656 615.672V617H61.25L48.75 576.844ZM37.5 555.672L53.125 555.828C57.3958 555.828 61.0938 554.786 64.2188 552.703C67.3958 550.62 69.6615 547.781 71.0156 544.188C72.3698 540.542 72.7604 537.026 72.1875 533.641C71.1458 527.859 67.4479 524.812 61.0938 524.5L42.9688 524.422L37.5 555.672ZM163.541 618.562C151.718 618.302 142.239 614.396 135.103 606.844C127.968 599.292 123.931 589.188 122.994 576.531C122.473 570.281 122.968 562.938 124.478 554.5C125.989 546.01 128.671 538.198 132.525 531.062C136.379 523.927 141.197 517.99 146.978 513.25C156.666 505.281 167.811 501.427 180.416 501.688C188.176 501.844 194.947 503.641 200.728 507.078C206.561 510.464 211.223 515.359 214.713 521.766C218.202 528.172 220.233 535.464 220.806 543.641C221.223 549.422 220.858 556.01 219.713 563.406C218.619 570.75 216.561 577.781 213.541 584.5C210.572 591.167 206.718 597.052 201.978 602.156C197.239 607.26 191.64 611.323 185.181 614.344C178.775 617.312 171.561 618.719 163.541 618.562ZM194.009 543.406C193.489 530.385 188.436 523.615 178.853 523.094C171.457 522.729 165.338 525.672 160.494 531.922C155.65 538.12 152.447 547.286 150.884 559.422C149.895 566.922 149.53 572.729 149.791 576.844C150.311 590.073 155.416 596.87 165.103 597.234C171.457 597.547 176.926 595.281 181.509 590.438C186.093 585.542 189.4 578.458 191.431 569.188C193.463 559.865 194.322 551.271 194.009 543.406ZM238.956 617L258.644 503.25L294.816 503.328C309.086 503.38 319.738 506.089 326.769 511.453C333.8 516.818 337.003 524.344 336.378 534.031C335.597 546.01 329.034 554.5 316.691 559.5C321.118 561.062 324.555 563.901 327.003 568.016C329.503 572.078 330.571 576.974 330.206 582.703C329.477 593.693 325.128 602.156 317.159 608.094C309.243 614.031 298.383 617 284.581 617H238.956ZM274.113 568.641L269.347 595.906L285.363 595.984C290.363 595.984 294.529 594.76 297.863 592.312C301.196 589.812 303.175 586.505 303.8 582.391C305.258 573.693 301.925 569.135 293.8 568.719L274.113 568.641ZM277.159 550.672L289.738 550.75C301.352 550.49 307.863 546.036 309.269 537.391C310.519 528.849 306.092 524.552 295.988 524.5L281.769 524.422L277.159 550.672ZM401.247 618.562C389.424 618.302 379.945 614.396 372.809 606.844C365.674 599.292 361.638 589.188 360.7 576.531C360.179 570.281 360.674 562.938 362.184 554.5C363.695 546.01 366.377 538.198 370.231 531.062C374.085 523.927 378.903 517.99 384.684 513.25C394.372 505.281 405.518 501.427 418.122 501.688C425.882 501.844 432.653 503.641 438.434 507.078C444.268 510.464 448.929 515.359 452.419 521.766C455.908 528.172 457.94 535.464 458.513 543.641C458.929 549.422 458.565 556.01 457.419 563.406C456.325 570.75 454.268 577.781 451.247 584.5C448.278 591.167 444.424 597.052 439.684 602.156C434.945 607.26 429.346 611.323 422.888 614.344C416.481 617.312 409.268 618.719 401.247 618.562ZM431.716 543.406C431.195 530.385 426.143 523.615 416.559 523.094C409.164 522.729 403.044 525.672 398.2 531.922C393.356 538.12 390.153 547.286 388.591 559.422C387.601 566.922 387.236 572.729 387.497 576.844C388.018 590.073 393.122 596.87 402.809 597.234C409.164 597.547 414.632 595.281 419.216 590.438C423.799 585.542 427.106 578.458 429.138 569.188C431.169 559.865 432.028 551.271 431.716 543.406ZM553.616 568.797H511.819L507.053 595.906H556.506L552.834 617H476.663L496.35 503.25H572.678L569.006 524.422H519.475L515.256 548.406H557.131L553.616 568.797ZM645.516 595.75H609.188L599.109 617H569.656L629.891 503.25H655.047L676.062 617H648.25L645.516 595.75ZM619.188 574.578H642.781L637.781 535.359L619.188 574.578ZM793.119 524.422H759.994L743.978 617H717.181L733.275 524.422H700.697L704.447 503.25H796.791L793.119 524.422ZM864.55 586.219C865.696 580.333 862.519 575.776 855.019 572.547L842.206 567.234C824.237 559.161 815.696 548.172 816.581 534.266C816.946 527.911 819.133 522.26 823.144 517.312C827.154 512.312 832.701 508.432 839.784 505.672C846.868 502.911 854.602 501.583 862.987 501.688C874.237 501.896 883.274 505.177 890.097 511.531C896.972 517.885 900.357 526.401 900.253 537.078H873.691C873.847 532.703 872.909 529.214 870.878 526.609C868.899 523.953 865.618 522.573 861.034 522.469C856.555 522.365 852.597 523.406 849.159 525.594C845.722 527.781 843.691 530.724 843.066 534.422C842.076 539.63 845.93 543.901 854.628 547.234C863.378 550.568 869.732 553.432 873.691 555.828C886.139 563.276 891.972 573.328 891.191 585.984C890.774 592.547 888.665 598.302 884.862 603.25C881.06 608.198 875.774 612.026 869.003 614.734C862.284 617.443 854.732 618.745 846.347 618.641C840.201 618.536 834.498 617.573 829.237 615.75C823.977 613.927 819.472 611.271 815.722 607.781C808.118 600.75 804.472 591.505 804.784 580.047L831.581 580.125C831.269 585.958 832.389 590.385 834.941 593.406C837.493 596.375 841.79 597.859 847.831 597.859C852.31 597.859 856.034 596.844 859.003 594.812C862.024 592.729 863.873 589.865 864.55 586.219ZM48.75 743.844H33.9062L26.875 784H0.15625L19.8438 670.25L60 670.328C72.8646 670.328 82.7604 673.349 89.6875 679.391C96.6667 685.38 99.7917 693.583 99.0625 704C98.4896 712.229 96.1198 719.052 91.9531 724.469C87.7865 729.833 81.9531 734.078 74.4531 737.203L89.7656 782.672V784H61.25L48.75 743.844ZM37.5 722.672L53.125 722.828C57.3958 722.828 61.0938 721.786 64.2188 719.703C67.3958 717.62 69.6615 714.781 71.0156 711.188C72.3698 707.542 72.7604 704.026 72.1875 700.641C71.1458 694.859 67.4479 691.812 61.0938 691.5L42.9688 691.422L37.5 722.672ZM163.541 785.562C151.718 785.302 142.239 781.396 135.103 773.844C127.968 766.292 123.931 756.188 122.994 743.531C122.473 737.281 122.968 729.938 124.478 721.5C125.989 713.01 128.671 705.198 132.525 698.062C136.379 690.927 141.197 684.99 146.978 680.25C156.666 672.281 167.811 668.427 180.416 668.688C188.176 668.844 194.947 670.641 200.728 674.078C206.561 677.464 211.223 682.359 214.713 688.766C218.202 695.172 220.233 702.464 220.806 710.641C221.223 716.422 220.858 723.01 219.713 730.406C218.619 737.75 216.561 744.781 213.541 751.5C210.572 758.167 206.718 764.052 201.978 769.156C197.239 774.26 191.64 778.323 185.181 781.344C178.775 784.312 171.561 785.719 163.541 785.562ZM194.009 710.406C193.489 697.385 188.436 690.615 178.853 690.094C171.457 689.729 165.338 692.672 160.494 698.922C155.65 705.12 152.447 714.286 150.884 726.422C149.895 733.922 149.53 739.729 149.791 743.844C150.311 757.073 155.416 763.87 165.103 764.234C171.457 764.547 176.926 762.281 181.509 757.438C186.093 752.542 189.4 745.458 191.431 736.188C193.463 726.865 194.322 718.271 194.009 710.406ZM238.956 784L258.644 670.25L294.816 670.328C309.086 670.38 319.738 673.089 326.769 678.453C333.8 683.818 337.003 691.344 336.378 701.031C335.597 713.01 329.034 721.5 316.691 726.5C321.118 728.062 324.555 730.901 327.003 735.016C329.503 739.078 330.571 743.974 330.206 749.703C329.477 760.693 325.128 769.156 317.159 775.094C309.243 781.031 298.383 784 284.581 784H238.956ZM274.113 735.641L269.347 762.906L285.363 762.984C290.363 762.984 294.529 761.76 297.863 759.312C301.196 756.812 303.175 753.505 303.8 749.391C305.258 740.693 301.925 736.135 293.8 735.719L274.113 735.641ZM277.159 717.672L289.738 717.75C301.352 717.49 307.863 713.036 309.269 704.391C310.519 695.849 306.092 691.552 295.988 691.5L281.769 691.422L277.159 717.672ZM401.247 785.562C389.424 785.302 379.945 781.396 372.809 773.844C365.674 766.292 361.638 756.188 360.7 743.531C360.179 737.281 360.674 729.938 362.184 721.5C363.695 713.01 366.377 705.198 370.231 698.062C374.085 690.927 378.903 684.99 384.684 680.25C394.372 672.281 405.518 668.427 418.122 668.688C425.882 668.844 432.653 670.641 438.434 674.078C444.268 677.464 448.929 682.359 452.419 688.766C455.908 695.172 457.94 702.464 458.513 710.641C458.929 716.422 458.565 723.01 457.419 730.406C456.325 737.75 454.268 744.781 451.247 751.5C448.278 758.167 444.424 764.052 439.684 769.156C434.945 774.26 429.346 778.323 422.888 781.344C416.481 784.312 409.268 785.719 401.247 785.562ZM431.716 710.406C431.195 697.385 426.143 690.615 416.559 690.094C409.164 689.729 403.044 692.672 398.2 698.922C393.356 705.12 390.153 714.286 388.591 726.422C387.601 733.922 387.236 739.729 387.497 743.844C388.018 757.073 393.122 763.87 402.809 764.234C409.164 764.547 414.632 762.281 419.216 757.438C423.799 752.542 427.106 745.458 429.138 736.188C431.169 726.865 432.028 718.271 431.716 710.406ZM553.616 735.797H511.819L507.053 762.906H556.506L552.834 784H476.663L496.35 670.25H572.678L569.006 691.422H519.475L515.256 715.406H557.131L553.616 735.797ZM645.516 762.75H609.188L599.109 784H569.656L629.891 670.25H655.047L676.062 784H648.25L645.516 762.75ZM619.188 741.578H642.781L637.781 702.359L619.188 741.578ZM793.119 691.422H759.994L743.978 784H717.181L733.275 691.422H700.697L704.447 670.25H796.791L793.119 691.422ZM864.55 753.219C865.696 747.333 862.519 742.776 855.019 739.547L842.206 734.234C824.237 726.161 815.696 715.172 816.581 701.266C816.946 694.911 819.133 689.26 823.144 684.312C827.154 679.312 832.701 675.432 839.784 672.672C846.868 669.911 854.602 668.583 862.987 668.688C874.237 668.896 883.274 672.177 890.097 678.531C896.972 684.885 900.357 693.401 900.253 704.078H873.691C873.847 699.703 872.909 696.214 870.878 693.609C868.899 690.953 865.618 689.573 861.034 689.469C856.555 689.365 852.597 690.406 849.159 692.594C845.722 694.781 843.691 697.724 843.066 701.422C842.076 706.63 845.93 710.901 854.628 714.234C863.378 717.568 869.732 720.432 873.691 722.828C886.139 730.276 891.972 740.328 891.191 752.984C890.774 759.547 888.665 765.302 884.862 770.25C881.06 775.198 875.774 779.026 869.003 781.734C862.284 784.443 854.732 785.745 846.347 785.641C840.201 785.536 834.498 784.573 829.237 782.75C823.977 780.927 819.472 778.271 815.722 774.781C808.118 767.75 804.472 758.505 804.784 747.047L831.581 747.125C831.269 752.958 832.389 757.385 834.941 760.406C837.493 763.375 841.79 764.859 847.831 764.859C852.31 764.859 856.034 763.844 859.003 761.812C862.024 759.729 863.873 756.865 864.55 753.219ZM48.75 910.844H33.9062L26.875 951H0.15625L19.8438 837.25L60 837.328C72.8646 837.328 82.7604 840.349 89.6875 846.391C96.6667 852.38 99.7917 860.583 99.0625 871C98.4896 879.229 96.1198 886.052 91.9531 891.469C87.7865 896.833 81.9531 901.078 74.4531 904.203L89.7656 949.672V951H61.25L48.75 910.844ZM37.5 889.672L53.125 889.828C57.3958 889.828 61.0938 888.786 64.2188 886.703C67.3958 884.62 69.6615 881.781 71.0156 878.188C72.3698 874.542 72.7604 871.026 72.1875 867.641C71.1458 861.859 67.4479 858.812 61.0938 858.5L42.9688 858.422L37.5 889.672ZM163.541 952.562C151.718 952.302 142.239 948.396 135.103 940.844C127.968 933.292 123.931 923.188 122.994 910.531C122.473 904.281 122.968 896.938 124.478 888.5C125.989 880.01 128.671 872.198 132.525 865.062C136.379 857.927 141.197 851.99 146.978 847.25C156.666 839.281 167.811 835.427 180.416 835.688C188.176 835.844 194.947 837.641 200.728 841.078C206.561 844.464 211.223 849.359 214.713 855.766C218.202 862.172 220.233 869.464 220.806 877.641C221.223 883.422 220.858 890.01 219.713 897.406C218.619 904.75 216.561 911.781 213.541 918.5C210.572 925.167 206.718 931.052 201.978 936.156C197.239 941.26 191.64 945.323 185.181 948.344C178.775 951.312 171.561 952.719 163.541 952.562ZM194.009 877.406C193.489 864.385 188.436 857.615 178.853 857.094C171.457 856.729 165.338 859.672 160.494 865.922C155.65 872.12 152.447 881.286 150.884 893.422C149.895 900.922 149.53 906.729 149.791 910.844C150.311 924.073 155.416 930.87 165.103 931.234C171.457 931.547 176.926 929.281 181.509 924.438C186.093 919.542 189.4 912.458 191.431 903.188C193.463 893.865 194.322 885.271 194.009 877.406ZM238.956 951L258.644 837.25L294.816 837.328C309.086 837.38 319.738 840.089 326.769 845.453C333.8 850.818 337.003 858.344 336.378 868.031C335.597 880.01 329.034 888.5 316.691 893.5C321.118 895.062 324.555 897.901 327.003 902.016C329.503 906.078 330.571 910.974 330.206 916.703C329.477 927.693 325.128 936.156 317.159 942.094C309.243 948.031 298.383 951 284.581 951H238.956ZM274.113 902.641L269.347 929.906L285.363 929.984C290.363 929.984 294.529 928.76 297.863 926.312C301.196 923.812 303.175 920.505 303.8 916.391C305.258 907.693 301.925 903.135 293.8 902.719L274.113 902.641ZM277.159 884.672L289.738 884.75C301.352 884.49 307.863 880.036 309.269 871.391C310.519 862.849 306.092 858.552 295.988 858.5L281.769 858.422L277.159 884.672ZM401.247 952.562C389.424 952.302 379.945 948.396 372.809 940.844C365.674 933.292 361.638 923.188 360.7 910.531C360.179 904.281 360.674 896.938 362.184 888.5C363.695 880.01 366.377 872.198 370.231 865.062C374.085 857.927 378.903 851.99 384.684 847.25C394.372 839.281 405.518 835.427 418.122 835.688C425.882 835.844 432.653 837.641 438.434 841.078C444.268 844.464 448.929 849.359 452.419 855.766C455.908 862.172 457.94 869.464 458.513 877.641C458.929 883.422 458.565 890.01 457.419 897.406C456.325 904.75 454.268 911.781 451.247 918.5C448.278 925.167 444.424 931.052 439.684 936.156C434.945 941.26 429.346 945.323 422.888 948.344C416.481 951.312 409.268 952.719 401.247 952.562ZM431.716 877.406C431.195 864.385 426.143 857.615 416.559 857.094C409.164 856.729 403.044 859.672 398.2 865.922C393.356 872.12 390.153 881.286 388.591 893.422C387.601 900.922 387.236 906.729 387.497 910.844C388.018 924.073 393.122 930.87 402.809 931.234C409.164 931.547 414.632 929.281 419.216 924.438C423.799 919.542 427.106 912.458 429.138 903.188C431.169 893.865 432.028 885.271 431.716 877.406ZM553.616 902.797H511.819L507.053 929.906H556.506L552.834 951H476.663L496.35 837.25H572.678L569.006 858.422H519.475L515.256 882.406H557.131L553.616 902.797ZM645.516 929.75H609.188L599.109 951H569.656L629.891 837.25H655.047L676.062 951H648.25L645.516 929.75ZM619.188 908.578H642.781L637.781 869.359L619.188 908.578ZM793.119 858.422H759.994L743.978 951H717.181L733.275 858.422H700.697L704.447 837.25H796.791L793.119 858.422ZM864.55 920.219C865.696 914.333 862.519 909.776 855.019 906.547L842.206 901.234C824.237 893.161 815.696 882.172 816.581 868.266C816.946 861.911 819.133 856.26 823.144 851.312C827.154 846.312 832.701 842.432 839.784 839.672C846.868 836.911 854.602 835.583 862.987 835.688C874.237 835.896 883.274 839.177 890.097 845.531C896.972 851.885 900.357 860.401 900.253 871.078H873.691C873.847 866.703 872.909 863.214 870.878 860.609C868.899 857.953 865.618 856.573 861.034 856.469C856.555 856.365 852.597 857.406 849.159 859.594C845.722 861.781 843.691 864.724 843.066 868.422C842.076 873.63 845.93 877.901 854.628 881.234C863.378 884.568 869.732 887.432 873.691 889.828C886.139 897.276 891.972 907.328 891.191 919.984C890.774 926.547 888.665 932.302 884.862 937.25C881.06 942.198 875.774 946.026 869.003 948.734C862.284 951.443 854.732 952.745 846.347 952.641C840.201 952.536 834.498 951.573 829.237 949.75C823.977 947.927 819.472 945.271 815.722 941.781C808.118 934.75 804.472 925.505 804.784 914.047L831.581 914.125C831.269 919.958 832.389 924.385 834.941 927.406C837.493 930.375 841.79 931.859 847.831 931.859C852.31 931.859 856.034 930.844 859.003 928.812C862.024 926.729 863.873 923.865 864.55 920.219Z" fill="#2F2C2C"/>
</svg>
