<svg width="17" height="18" viewBox="0 0 17 18" fill="none" xmlns="http://www.w3.org/2000/svg">
<path fill-rule="evenodd" clip-rule="evenodd" d="M11.3125 3.9375C11.3125 3.19158 11.0162 2.47621 10.4887 1.94876C9.96129 1.42132 9.24592 1.125 8.5 1.125C7.75408 1.125 7.03871 1.42132 6.51126 1.94876C5.98382 2.47621 5.6875 3.19158 5.6875 3.9375V4.5H11.3125V3.9375ZM12.4375 3.9375V4.5H16.375V15.75C16.375 16.3467 16.1379 16.919 15.716 17.341C15.294 17.7629 14.7217 18 14.125 18H2.875C2.27826 18 1.70597 17.7629 1.28401 17.341C0.862053 16.919 0.625 16.3467 0.625 15.75V4.5H4.5625V3.9375C4.5625 2.89321 4.97734 1.89169 5.71577 1.15327C6.45419 0.414843 7.45571 0 8.5 0C9.54429 0 10.5458 0.414843 11.2842 1.15327C12.0227 1.89169 12.4375 2.89321 12.4375 3.9375Z" fill="black"/>
</svg>
