<svg width="24" height="24" viewBox="0 0 24 24" fill="none" xmlns="http://www.w3.org/2000/svg">
<g clip-path="url(#clip0_20_155)">
<path d="M23.0709 8.40894C22.5502 7.43093 21.7726 6.61349 20.8218 6.04468C19.8709 5.47587 18.7829 5.17723 17.6749 5.18094H0.583942C0.468169 5.18191 0.35525 5.21698 0.259295 5.28177C0.163341 5.34655 0.0886073 5.43818 0.0444341 5.5452C0.000260886 5.65221 -0.0113928 5.76988 0.0109294 5.88348C0.0332516 5.99709 0.0885596 6.10159 0.169942 6.18394L3.89394 9.92994C4.05677 10.0935 4.25031 10.2233 4.46346 10.3119C4.6766 10.4004 4.90514 10.446 5.13594 10.4459H17.1849C17.5971 10.4418 17.994 10.6016 18.2883 10.8901C18.5827 11.1787 18.7503 11.5723 18.7544 11.9844C18.7586 12.3966 18.5988 12.7935 18.3102 13.0878C18.0217 13.3822 17.6281 13.5498 17.2159 13.5539H8.90994C8.79408 13.5547 8.68103 13.5896 8.58492 13.6544C8.48882 13.7191 8.41393 13.8107 8.36963 13.9177C8.32534 14.0248 8.3136 14.1425 8.33589 14.2562C8.35818 14.3699 8.4135 14.4745 8.49494 14.5569L12.2199 18.3039C12.3827 18.4676 12.5762 18.5975 12.7894 18.686C13.0025 18.7746 13.2311 18.8201 13.4619 18.8199H17.2189C22.1059 18.8199 25.8029 13.5949 23.0709 8.40694" fill="black"/>
</g>
<defs>
<clipPath id="clip0_20_155">
<rect width="24" height="24" fill="white"/>
</clipPath>
</defs>
</svg>
