<svg width="22" height="22" viewBox="0 0 22 22" fill="none" xmlns="http://www.w3.org/2000/svg">
<path d="M17.9575 6.13254C17.0437 5.9316 16.2171 5.44636 15.5962 4.74644C14.9754 4.04653 14.5922 3.16792 14.5017 2.23671V1.83337H11.3392V14.3642C11.3398 14.9202 11.1655 15.4623 10.8409 15.9138C10.5163 16.3652 10.0579 16.7031 9.53065 16.8795C9.00337 17.056 8.43395 17.062 7.90303 16.8968C7.37212 16.7317 6.90663 16.4036 6.57251 15.9592C6.27317 15.5658 6.08987 15.0965 6.04335 14.6044C5.99682 14.1122 6.08892 13.6169 6.30922 13.1744C6.52953 12.7318 6.86926 12.3598 7.29 12.1003C7.71073 11.8408 8.19568 11.7041 8.69001 11.7059C8.9634 11.7043 9.23542 11.7445 9.49668 11.825V8.61671C9.19265 8.57906 8.88628 8.56374 8.58001 8.57087C7.45188 8.60102 6.35702 8.95948 5.4295 9.60237C4.50199 10.2453 3.78208 11.1447 3.35792 12.1905C2.93377 13.2363 2.82378 14.383 3.04143 15.4904C3.25909 16.5977 3.79493 17.6176 4.58334 18.425C5.39137 19.2466 6.42538 19.8093 7.55398 20.0419C8.68258 20.2744 9.85483 20.1661 10.9218 19.7309C11.9887 19.2957 12.9022 18.5531 13.5462 17.5975C14.1901 16.6419 14.5355 15.5165 14.5383 14.3642V7.94754C15.8138 8.85866 17.3434 9.34605 18.9108 9.34087V6.22421C18.6029 6.22548 18.2957 6.19476 17.9942 6.13254H17.9575Z" fill="white"/>
</svg>
