<svg width="24" height="24" viewBox="0 0 24 24" fill="none" xmlns="http://www.w3.org/2000/svg">
<path d="M0 2.86501V7.86201C0 9.74501 1.331 10.992 3.083 10.992C3.48194 10.998 3.87799 10.9234 4.24742 10.7727C4.61685 10.622 4.95207 10.3983 5.233 10.115V10.858H6.445V2.86401H5.223V7.79801C5.223 9.06301 4.353 9.91801 3.228 9.92001C2.089 9.91801 1.231 9.08601 1.231 7.79801V2.86401L0 2.86501ZM7.362 2.86501V10.858H8.525V10.126C8.80311 10.4041 9.13333 10.6246 9.49676 10.7749C9.8602 10.9253 10.2497 11.0024 10.643 11.002C11.0492 11.0124 11.4533 10.9414 11.8316 10.7932C12.2099 10.6449 12.5547 10.4225 12.8457 10.1389C13.1367 9.85526 13.3679 9.51628 13.5258 9.1419C13.6837 8.76752 13.765 8.36532 13.765 7.95901C13.765 7.5527 13.6837 7.1505 13.5258 6.77613C13.3679 6.40175 13.1367 6.06277 12.8457 5.77917C12.5547 5.49557 12.2099 5.27309 11.8316 5.12485C11.4533 4.97661 11.0492 4.9056 10.643 4.91601C10.2514 4.91574 9.86355 4.99301 9.50192 5.14336C9.14029 5.29371 8.81201 5.51416 8.536 5.79201V2.86501H7.362ZM17.248 4.92101C16.8499 4.9193 16.4554 4.99627 16.0871 5.1475C15.7188 5.29873 15.384 5.52123 15.102 5.80223C14.82 6.08323 14.5963 6.41719 14.4437 6.78492C14.2911 7.15265 14.2127 7.5469 14.213 7.94501C14.213 9.68201 15.586 10.982 17.366 10.982C17.8603 10.9921 18.35 10.8847 18.7947 10.6686C19.2394 10.4525 19.6265 10.1339 19.924 9.73901L19.074 9.12101C18.8804 9.39201 18.6237 9.61176 18.3261 9.76126C18.0285 9.91076 17.699 9.9855 17.366 9.97901C16.8938 9.98488 16.4353 9.82103 16.0737 9.51729C15.7122 9.21356 15.4717 8.79011 15.396 8.32401H20.213V7.94501C20.213 6.21101 18.959 4.92101 17.249 4.92101H17.248ZM23.411 4.98701C23.1349 4.98461 22.863 5.05394 22.6218 5.18822C22.3806 5.32249 22.1784 5.51711 22.035 5.75301V5.03401H20.872V10.858H22.046V7.54601C22.046 6.64401 22.605 6.06201 23.373 6.06201H23.868V4.98901L23.411 4.98701ZM17.208 5.93101C17.6392 5.92515 18.0588 6.07062 18.3939 6.34211C18.729 6.61361 18.9583 6.99395 19.042 7.41701H15.424C15.506 7.00238 15.728 6.6285 16.0528 6.35798C16.3775 6.08747 16.7854 5.93673 17.208 5.93101ZM10.549 5.93701C10.8144 5.93688 11.0772 5.98903 11.3225 6.09047C11.5677 6.19191 11.7906 6.34067 11.9784 6.52824C12.1661 6.71582 12.3151 6.93854 12.4168 7.18369C12.5185 7.42883 12.5709 7.69161 12.571 7.95701C12.5711 8.22241 12.519 8.48524 12.4175 8.73049C12.3161 8.97574 12.1673 9.19861 11.9798 9.38637C11.7922 9.57413 11.5695 9.7231 11.3243 9.82479C11.0792 9.92648 10.8164 9.97888 10.551 9.97901C10.0185 9.97461 9.50944 9.75961 9.135 9.38101C8.7597 9.00297 8.54937 8.49171 8.55 7.95901C8.54911 7.42646 8.75907 6.91522 9.134 6.53701C9.50787 6.15792 10.0166 5.94221 10.549 5.93701ZM0 12.987V20.958H5.722V19.591H1.546V17.621H5.61V16.306H1.546V14.351H5.722V12.986L0 12.987ZM14.56 13.397V15.082H13.41V16.42H14.564V19.563C14.564 20.356 15.136 20.984 16.164 20.984H17.807L17.801 19.646H16.66C16.312 19.646 16.088 19.496 16.088 19.182V16.414H17.8V15.082H16.094V13.396L14.56 13.397ZM9.263 14.924C8.85186 14.9229 8.44461 15.0035 8.06489 15.1612C7.68518 15.3188 7.34057 15.5503 7.05111 15.8423C6.76164 16.1343 6.53308 16.4808 6.37871 16.8619C6.22434 17.243 6.14723 17.6509 6.15187 18.062C6.15651 18.4731 6.2428 18.8792 6.40573 19.2567C6.56865 19.6342 6.80497 19.9755 7.10095 20.2609C7.39693 20.5462 7.74667 20.7699 8.12985 20.919C8.51302 21.068 8.92199 21.1394 9.333 21.129C10.0287 21.1363 10.7052 20.9008 11.246 20.463V20.995H12.763V15.082H11.254V15.608C10.7132 15.1633 10.0341 14.9214 9.334 14.924H9.264H9.263ZM21.034 14.931C19.449 14.931 18.334 15.575 18.334 16.817C18.334 17.677 18.947 18.238 20.27 18.512L21.718 18.84C22.288 18.95 22.44 19.099 22.44 19.33C22.44 19.701 22.002 19.933 21.313 19.933C20.437 19.933 19.935 19.743 19.74 19.085H18.207C18.427 20.316 19.364 21.135 21.256 21.135H21.258C23.01 21.135 24 20.316 24 19.182C24 18.376 23.415 17.774 22.191 17.515L20.897 17.255C20.146 17.119 19.909 16.981 19.909 16.709C19.909 16.352 20.27 16.134 20.939 16.134C21.661 16.134 22.191 16.326 22.344 16.981H23.862C23.776 15.752 22.872 14.931 21.035 14.931H21.034ZM9.467 16.181C10.477 16.191 11.286 17.018 11.274 18.028C11.2743 18.2667 11.2271 18.503 11.1352 18.7233C11.0433 18.9435 10.9085 19.1433 10.7387 19.311C10.5689 19.4787 10.3674 19.611 10.146 19.7001C9.92456 19.7892 9.68764 19.8333 9.449 19.83C8.96525 19.8276 8.50225 19.6332 8.16187 19.2894C7.82149 18.9457 7.63161 18.4808 7.634 17.997C7.63639 17.5133 7.83085 17.0503 8.1746 16.7099C8.51836 16.3695 8.98324 16.1796 9.467 16.182V16.181Z" fill="white"/>
</svg>
